<?xml version="1.0" standalone="no"?>
<!DOCTYPE svg PUBLIC "-//W3C//DTD SVG 20010904//EN"
 "http://www.w3.org/TR/2001/REC-SVG-20010904/DTD/svg10.dtd">
<svg version="1.0" xmlns="http://www.w3.org/2000/svg"
 width="1290.000000pt" height="1257.000000pt" viewBox="0 0 1290.000000 1257.000000"
 preserveAspectRatio="xMidYMid meet">

<g transform="translate(0.000000,1257.000000) scale(0.100000,-0.100000)"
fill="#000000" stroke="none">
<path d="M0 6285 l0 -6285 6450 0 6450 0 0 6285 0 6285 -6450 0 -6450 0 0
-6285z m5062 2369 c26 -4 35 -10 31 -20 -3 -9 1 -14 12 -14 17 0 17 -1 2 -18
-21 -22 -13 -32 24 -32 35 0 30 -25 -7 -34 -13 -4 -46 -29 -73 -56 -44 -45
-53 -49 -83 -44 -46 8 -98 33 -105 50 -3 8 -14 14 -24 14 -10 0 -19 6 -19 14
0 8 -19 18 -45 25 -48 12 -61 31 -21 31 13 0 38 3 56 6 28 6 31 10 27 33 -5
25 -2 28 46 43 50 15 96 16 179 2z m-1972 -297 c8 -3 24 -7 35 -10 11 -2 19
-9 18 -15 -2 -7 5 -12 15 -12 15 -1 15 -2 -3 -16 -17 -13 -18 -16 -5 -24 8 -5
22 -10 31 -10 27 0 17 -29 -12 -35 -15 -3 -37 -19 -49 -36 -13 -16 -29 -29
-36 -29 -7 0 -16 -9 -19 -21 -5 -14 -12 -18 -23 -13 -10 3 -34 10 -55 14 -21
4 -48 17 -61 29 -12 11 -28 21 -34 21 -7 0 -12 6 -12 13 0 8 -22 19 -55 27
-30 7 -53 15 -51 18 3 2 31 9 63 16 57 11 61 15 49 46 -13 32 144 60 204 37z"/>
</g>
</svg>
